<?xml version="1.0" encoding="UTF-8"?>
<svg xmlns="http://www.w3.org/2000/svg" xmlns:xlink="http://www.w3.org/1999/xlink" width="1125pt" height="1124.99995pt" viewBox="0 0 1125 1124.99995" version="1.2">
<defs>
<clipPath id="clip1">
  <path d="M 607 277.300781 L 787.5 277.300781 L 787.5 413 L 607 413 Z M 607 277.300781 "/>
</clipPath>
<clipPath id="clip2">
  <path d="M 337.5 607 L 525 607 L 525 727.300781 L 337.5 727.300781 Z M 337.5 607 "/>
</clipPath>
<clipPath id="clip3">
  <path d="M 338 277.300781 L 456 277.300781 L 456 313 L 338 313 Z M 338 277.300781 "/>
</clipPath>
<clipPath id="clip4">
  <path d="M 667 622 L 787.5 622 L 787.5 727.300781 L 667 727.300781 Z M 667 622 "/>
</clipPath>
</defs>
<g id="surface1">
<g clip-path="url(#clip1)" clip-rule="nonzero">
<path style=" stroke:none;fill-rule:nonzero;fill:rgb(100%,100%,100%);fill-opacity:1;" d="M 780 367.300781 L 765 367.300781 L 765 299.800781 C 765 287.394531 754.90625 277.300781 742.5 277.300781 L 652.5 277.300781 C 640.09375 277.300781 630 287.394531 630 299.800781 L 630 367.300781 L 615 367.300781 C 610.851562 367.300781 607.5 370.652344 607.5 374.800781 C 607.5 395.476562 624.324219 412.300781 645 412.300781 L 750 412.300781 C 770.675781 412.300781 787.5 395.476562 787.5 374.800781 C 787.5 370.652344 784.148438 367.300781 780 367.300781 Z M 645 299.800781 C 645 295.660156 648.359375 292.300781 652.5 292.300781 L 742.5 292.300781 C 746.640625 292.300781 750 295.660156 750 299.800781 L 750 367.300781 L 645 367.300781 Z M 750 397.300781 L 645 397.300781 C 635.21875 397.300781 626.878906 391.027344 623.78125 382.300781 L 771.21875 382.300781 C 768.121094 391.027344 759.78125 397.300781 750 397.300781 Z M 750 397.300781 "/>
</g>
<path style=" stroke:none;fill-rule:nonzero;fill:rgb(100%,100%,100%);fill-opacity:1;" d="M 727.5 307.300781 L 667.5 307.300781 C 663.351562 307.300781 660 310.652344 660 314.800781 L 660 344.800781 C 660 348.945312 663.351562 352.300781 667.5 352.300781 L 727.5 352.300781 C 731.648438 352.300781 735 348.945312 735 344.800781 L 735 314.800781 C 735 310.652344 731.648438 307.300781 727.5 307.300781 Z M 720 337.300781 L 675 337.300781 L 675 322.300781 L 720 322.300781 Z M 720 337.300781 "/>
<g clip-path="url(#clip2)" clip-rule="nonzero">
<path style=" stroke:none;fill-rule:nonzero;fill:rgb(100%,100%,100%);fill-opacity:1;" d="M 487.5 686.199219 L 487.5 644.800781 C 487.5 624.121094 470.675781 607.300781 450 607.300781 L 375 607.300781 C 354.324219 607.300781 337.5 624.121094 337.5 644.800781 L 337.5 689.800781 C 337.5 710.476562 354.324219 727.300781 375 727.300781 L 517.5 727.300781 C 520.6875 727.300781 523.523438 725.28125 524.574219 722.28125 C 525.621094 719.28125 524.671875 715.929688 522.1875 713.941406 Z M 375 712.300781 C 362.59375 712.300781 352.5 702.203125 352.5 689.800781 L 352.5 644.800781 C 352.5 632.394531 362.59375 622.300781 375 622.300781 L 450 622.300781 C 462.40625 622.300781 472.5 632.394531 472.5 644.800781 L 472.5 689.800781 C 472.5 692.078125 473.535156 694.230469 475.3125 695.65625 L 496.117188 712.300781 Z M 375 712.300781 "/>
</g>
<path style=" stroke:none;fill-rule:nonzero;fill:rgb(100%,100%,100%);fill-opacity:1;" d="M 375 659.800781 L 390 659.800781 L 390 674.800781 L 375 674.800781 Z M 375 659.800781 "/>
<path style=" stroke:none;fill-rule:nonzero;fill:rgb(100%,100%,100%);fill-opacity:1;" d="M 405 659.800781 L 420 659.800781 L 420 674.800781 L 405 674.800781 Z M 405 659.800781 "/>
<path style=" stroke:none;fill-rule:nonzero;fill:rgb(100%,100%,100%);fill-opacity:1;" d="M 435 659.800781 L 450 659.800781 L 450 674.800781 L 435 674.800781 Z M 435 659.800781 "/>
<path style=" stroke:none;fill-rule:nonzero;fill:rgb(100%,100%,100%);fill-opacity:1;" d="M 375 464.800781 L 420 464.800781 C 422.453125 464.800781 424.761719 463.597656 426.15625 461.574219 C 427.558594 459.558594 427.882812 456.984375 427.027344 454.683594 L 409.726562 408.25 C 415.898438 404.230469 420 397.308594 420 389.410156 C 420 377.003906 409.90625 366.910156 397.5 366.910156 C 385.09375 366.910156 375 377.003906 375 389.410156 C 375 397.300781 379.101562 404.230469 385.265625 408.25 L 367.964844 454.683594 C 367.109375 456.984375 367.441406 459.558594 368.835938 461.574219 C 370.238281 463.597656 372.546875 464.800781 375 464.800781 Z M 385.792969 449.800781 L 397.5 418.390625 L 409.207031 449.800781 Z M 397.5 381.910156 C 401.640625 381.910156 405 385.269531 405 389.410156 C 405 393.292969 402.007812 396.382812 398.226562 396.757812 C 397.746094 396.804688 397.261719 396.804688 396.78125 396.757812 C 392.992188 396.382812 390 393.292969 390 389.410156 C 390 385.269531 393.359375 381.910156 397.5 381.910156 Z M 397.5 381.910156 "/>
<path style=" stroke:none;fill-rule:nonzero;fill:rgb(100%,100%,100%);fill-opacity:1;" d="M 380.144531 359.4375 C 389.722656 350.417969 405.285156 350.417969 414.863281 359.4375 L 425.144531 348.527344 C 409.914062 334.15625 385.09375 334.15625 369.863281 348.527344 Z M 380.144531 359.4375 "/>
<path style=" stroke:none;fill-rule:nonzero;fill:rgb(100%,100%,100%);fill-opacity:1;" d="M 428.941406 335.492188 L 439.546875 324.886719 C 416.152344 301.496094 378.089844 301.496094 354.699219 324.886719 L 365.300781 335.492188 C 382.84375 317.941406 411.398438 317.941406 428.941406 335.492188 Z M 428.941406 335.492188 "/>
<g clip-path="url(#clip3)" clip-rule="nonzero">
<path style=" stroke:none;fill-rule:nonzero;fill:rgb(100%,100%,100%);fill-opacity:1;" d="M 444.699219 312.09375 L 455.300781 301.488281 C 439.710938 285.894531 418.996094 277.300781 396.96875 277.300781 C 374.941406 277.300781 354.21875 285.886719 338.625 301.488281 L 349.230469 312.09375 C 362.003906 299.328125 378.945312 292.300781 396.96875 292.300781 C 414.988281 292.300781 431.941406 299.328125 444.699219 312.09375 Z M 444.699219 312.09375 "/>
</g>
<g clip-path="url(#clip4)" clip-rule="nonzero">
<path style=" stroke:none;fill-rule:nonzero;fill:rgb(100%,100%,100%);fill-opacity:1;" d="M 780 622.300781 L 675 622.300781 C 670.851562 622.300781 667.5 625.652344 667.5 629.800781 L 667.5 719.800781 C 667.5 723.945312 670.851562 727.300781 675 727.300781 L 780 727.300781 C 784.148438 727.300781 787.5 723.945312 787.5 719.800781 L 787.5 629.800781 C 787.5 625.652344 784.148438 622.300781 780 622.300781 Z M 682.5 667.300781 L 772.5 667.300781 L 772.5 682.300781 L 682.5 682.300781 Z M 682.5 637.300781 L 772.5 637.300781 L 772.5 652.300781 L 682.5 652.300781 Z M 772.5 712.300781 L 682.5 712.300781 L 682.5 697.300781 L 772.5 697.300781 Z M 772.5 712.300781 "/>
</g>
<path style=" stroke:none;fill-rule:nonzero;fill:rgb(100%,100%,100%);fill-opacity:1;" d="M 540 524.800781 C 556.546875 524.800781 570 511.34375 570 494.800781 C 570 478.253906 556.546875 464.800781 540 464.800781 C 523.453125 464.800781 510 478.253906 510 494.800781 C 510 511.34375 523.453125 524.800781 540 524.800781 Z M 540 479.800781 C 548.273438 479.800781 555 486.527344 555 494.800781 C 555 503.070312 548.273438 509.800781 540 509.800781 C 531.726562 509.800781 525 503.070312 525 494.800781 C 525 486.527344 531.726562 479.800781 540 479.800781 Z M 540 479.800781 "/>
<path style=" stroke:none;fill-rule:nonzero;fill:rgb(100%,100%,100%);fill-opacity:1;" d="M 480 517.300781 L 484.378906 517.300781 C 484.507812 517.605469 484.628906 517.914062 484.761719 518.214844 L 481.664062 521.3125 C 480.253906 522.722656 479.46875 524.621094 479.46875 526.613281 C 479.46875 528.601562 480.253906 530.515625 481.664062 531.917969 L 502.882812 553.132812 C 505.695312 555.945312 510.675781 555.945312 513.488281 553.132812 L 516.585938 550.035156 C 516.886719 550.171875 517.191406 550.292969 517.5 550.417969 L 517.5 554.800781 C 517.5 558.945312 520.851562 562.300781 525 562.300781 L 555 562.300781 C 559.148438 562.300781 562.5 558.945312 562.5 554.800781 L 562.5 550.417969 C 562.808594 550.292969 563.113281 550.171875 563.414062 550.035156 L 566.511719 553.132812 C 567.921875 554.542969 569.820312 555.332031 571.816406 555.332031 C 573.808594 555.332031 575.714844 554.542969 577.117188 553.132812 L 598.335938 531.917969 C 599.746094 530.507812 600.53125 528.601562 600.53125 526.613281 C 600.53125 524.621094 599.746094 522.714844 598.335938 521.3125 L 595.238281 518.214844 C 595.371094 517.914062 595.492188 517.605469 595.621094 517.300781 L 600 517.300781 C 604.148438 517.300781 607.5 513.945312 607.5 509.800781 L 607.5 479.800781 C 607.5 475.652344 604.148438 472.300781 600 472.300781 L 595.621094 472.300781 C 595.492188 471.992188 595.371094 471.683594 595.238281 471.382812 L 598.335938 468.285156 C 599.746094 466.875 600.53125 464.980469 600.53125 462.984375 C 600.53125 460.996094 599.746094 459.085938 598.335938 457.683594 L 577.117188 436.464844 C 574.304688 433.644531 569.324219 433.660156 566.511719 436.464844 L 563.414062 439.5625 C 563.113281 439.425781 562.808594 439.308594 562.5 439.179688 L 562.5 434.800781 C 562.5 430.652344 559.148438 427.300781 555 427.300781 L 525 427.300781 C 520.851562 427.300781 517.5 430.652344 517.5 434.800781 L 517.5 439.179688 C 517.191406 439.308594 516.886719 439.425781 516.585938 439.5625 L 513.488281 436.464844 C 512.078125 435.054688 510.179688 434.265625 508.183594 434.265625 C 506.191406 434.265625 504.285156 435.054688 502.882812 436.464844 L 481.664062 457.683594 C 480.253906 459.089844 479.46875 460.996094 479.46875 462.984375 C 479.46875 464.980469 480.253906 466.882812 481.664062 468.285156 L 484.761719 471.382812 C 484.628906 471.683594 484.507812 471.992188 484.378906 472.300781 L 480 472.300781 C 475.851562 472.300781 472.5 475.652344 472.5 479.800781 L 472.5 509.800781 C 472.5 513.945312 475.851562 517.300781 480 517.300781 Z M 487.5 487.300781 L 489.703125 487.300781 C 493.019531 487.300781 495.945312 485.125 496.890625 481.945312 C 497.804688 478.890625 498.984375 476.019531 500.40625 473.402344 C 501.988281 470.476562 501.472656 466.863281 499.117188 464.515625 L 497.578125 462.976562 L 508.183594 452.371094 L 509.722656 453.910156 C 512.070312 456.265625 515.699219 456.78125 518.609375 455.199219 C 521.226562 453.78125 524.09375 452.597656 527.152344 451.683594 C 530.324219 450.746094 532.5 447.820312 532.5 444.503906 L 532.5 442.300781 L 547.5 442.300781 L 547.5 444.503906 C 547.5 447.820312 549.675781 450.746094 552.855469 451.6875 C 555.90625 452.605469 558.78125 453.78125 561.398438 455.207031 C 564.316406 456.78125 567.929688 456.273438 570.285156 453.917969 L 571.824219 452.378906 L 582.425781 462.984375 L 580.890625 464.523438 C 578.542969 466.863281 578.015625 470.484375 579.601562 473.410156 C 581.015625 476.027344 582.203125 478.890625 583.117188 481.953125 C 584.054688 485.125 586.980469 487.300781 590.296875 487.300781 L 592.5 487.300781 L 592.5 502.300781 L 590.296875 502.300781 C 586.980469 502.300781 584.054688 504.472656 583.109375 507.652344 C 582.195312 510.707031 581.015625 513.578125 579.59375 516.195312 C 578.011719 519.121094 578.527344 522.738281 580.882812 525.085938 L 582.421875 526.621094 L 571.816406 537.226562 L 570.277344 535.6875 C 567.929688 533.34375 564.316406 532.832031 561.390625 534.398438 C 558.773438 535.816406 555.90625 537 552.847656 537.917969 C 549.675781 538.855469 547.5 541.777344 547.5 545.09375 L 547.5 547.300781 L 532.5 547.300781 L 532.5 545.09375 C 532.5 541.777344 530.324219 538.855469 527.144531 537.910156 C 524.09375 536.996094 521.21875 535.816406 518.601562 534.390625 C 515.683594 532.816406 512.070312 533.328125 509.714844 535.683594 L 508.175781 537.21875 L 497.574219 526.613281 L 499.109375 525.078125 C 501.457031 522.738281 501.984375 519.113281 500.398438 516.1875 C 498.984375 513.570312 497.796875 510.707031 496.882812 507.648438 C 495.945312 504.472656 493.019531 502.300781 489.703125 502.300781 L 487.5 502.300781 Z M 487.5 487.300781 "/>
<path style=" stroke:none;fill-rule:nonzero;fill:rgb(100%,100%,100%);fill-opacity:1;" d="M 472.5 314.800781 L 487.5 314.800781 L 487.5 329.800781 L 472.5 329.800781 Z M 472.5 314.800781 "/>
<path style=" stroke:none;fill-rule:nonzero;fill:rgb(100%,100%,100%);fill-opacity:1;" d="M 502.5 314.800781 L 517.5 314.800781 L 517.5 329.800781 L 502.5 329.800781 Z M 502.5 314.800781 "/>
<path style=" stroke:none;fill-rule:nonzero;fill:rgb(100%,100%,100%);fill-opacity:1;" d="M 532.5 314.800781 L 547.5 314.800781 L 547.5 329.800781 L 532.5 329.800781 Z M 532.5 314.800781 "/>
<path style=" stroke:none;fill-rule:nonzero;fill:rgb(100%,100%,100%);fill-opacity:1;" d="M 562.5 314.800781 L 577.5 314.800781 L 577.5 329.800781 L 562.5 329.800781 Z M 562.5 314.800781 "/>
<path style=" stroke:none;fill-rule:nonzero;fill:rgb(100%,100%,100%);fill-opacity:1;" d="M 592.5 314.800781 L 607.5 314.800781 L 607.5 329.800781 L 592.5 329.800781 Z M 592.5 314.800781 "/>
<path style=" stroke:none;fill-rule:nonzero;fill:rgb(100%,100%,100%);fill-opacity:1;" d="M 757.5 434.800781 L 772.5 434.800781 L 772.5 449.800781 L 757.5 449.800781 Z M 757.5 434.800781 "/>
<path style=" stroke:none;fill-rule:nonzero;fill:rgb(100%,100%,100%);fill-opacity:1;" d="M 757.5 464.800781 L 772.5 464.800781 L 772.5 479.800781 L 757.5 479.800781 Z M 757.5 464.800781 "/>
<path style=" stroke:none;fill-rule:nonzero;fill:rgb(100%,100%,100%);fill-opacity:1;" d="M 757.5 584.800781 L 772.5 584.800781 L 772.5 599.800781 L 757.5 599.800781 Z M 757.5 584.800781 "/>
<path style=" stroke:none;fill-rule:nonzero;fill:rgb(100%,100%,100%);fill-opacity:1;" d="M 630 667.300781 L 645 667.300781 L 645 682.300781 L 630 682.300781 Z M 630 667.300781 "/>
<path style=" stroke:none;fill-rule:nonzero;fill:rgb(100%,100%,100%);fill-opacity:1;" d="M 600 667.300781 L 615 667.300781 L 615 682.300781 L 600 682.300781 Z M 600 667.300781 "/>
<path style=" stroke:none;fill-rule:nonzero;fill:rgb(100%,100%,100%);fill-opacity:1;" d="M 570 667.300781 L 585 667.300781 L 585 682.300781 L 570 682.300781 Z M 570 667.300781 "/>
<path style=" stroke:none;fill-rule:nonzero;fill:rgb(100%,100%,100%);fill-opacity:1;" d="M 540 667.300781 L 555 667.300781 L 555 682.300781 L 540 682.300781 Z M 540 667.300781 "/>
<path style=" stroke:none;fill-rule:nonzero;fill:rgb(100%,100%,100%);fill-opacity:1;" d="M 510 667.300781 L 525 667.300781 L 525 682.300781 L 510 682.300781 Z M 510 667.300781 "/>
<path style=" stroke:none;fill-rule:nonzero;fill:rgb(100%,100%,100%);fill-opacity:1;" d="M 352.5 577.300781 L 367.5 577.300781 L 367.5 592.300781 L 352.5 592.300781 Z M 352.5 577.300781 "/>
<path style=" stroke:none;fill-rule:nonzero;fill:rgb(100%,100%,100%);fill-opacity:1;" d="M 352.5 547.300781 L 367.5 547.300781 L 367.5 562.300781 L 352.5 562.300781 Z M 352.5 547.300781 "/>
<path style=" stroke:none;fill-rule:nonzero;fill:rgb(100%,100%,100%);fill-opacity:1;" d="M 352.5 517.300781 L 367.5 517.300781 L 367.5 532.300781 L 352.5 532.300781 Z M 352.5 517.300781 "/>
<path style=" stroke:none;fill-rule:nonzero;fill:rgb(100%,100%,100%);fill-opacity:1;" d="M 352.5 487.300781 L 367.5 487.300781 L 367.5 502.300781 L 352.5 502.300781 Z M 352.5 487.300781 "/>
<path style=" stroke:none;fill-rule:nonzero;fill:rgb(100%,100%,100%);fill-opacity:1;" d="M 757.5 554.800781 L 772.5 554.800781 L 772.5 569.800781 L 757.5 569.800781 Z M 757.5 554.800781 "/>
<path style=" stroke:none;fill-rule:nonzero;fill:rgb(100%,100%,100%);fill-opacity:1;" d="M 757.5 524.800781 L 772.5 524.800781 L 772.5 539.800781 L 757.5 539.800781 Z M 757.5 524.800781 "/>
<path style=" stroke:none;fill-rule:nonzero;fill:rgb(100%,100%,100%);fill-opacity:1;" d="M 757.5 494.800781 L 772.5 494.800781 L 772.5 509.800781 L 757.5 509.800781 Z M 757.5 494.800781 "/>
<path style=" stroke:none;fill-rule:nonzero;fill:rgb(100%,100%,100%);fill-opacity:1;" d="M 442.5 592.300781 L 690 592.300781 C 691.265625 592.300781 692.476562 591.886719 693.546875 591.210938 C 721.636719 585.96875 742.5 561.097656 742.5 532.300781 C 742.5 499.214844 715.582031 472.300781 682.5 472.300781 C 682.5 450.203125 666.628906 431.574219 645.039062 428.058594 C 636.046875 426.265625 626.753906 427.6875 618.609375 431.558594 C 607.417969 393.738281 572.789062 367.300781 532.5 367.300781 C 482.871094 367.300781 442.5 407.671875 442.5 457.300781 C 442.5 462.324219 442.925781 467.339844 443.773438 472.3125 C 410.257812 471.660156 382.5 498.789062 382.5 532.300781 C 382.5 565.382812 409.417969 592.300781 442.5 592.300781 Z M 442.5 487.300781 C 445.613281 487.300781 448.785156 487.636719 451.925781 488.3125 C 454.53125 488.867188 457.207031 488.011719 459 486.054688 C 460.792969 484.113281 461.429688 481.359375 460.671875 478.824219 C 458.574219 471.78125 457.5 464.535156 457.5 457.300781 C 457.5 415.945312 491.144531 382.300781 532.5 382.300781 C 569.160156 382.300781 600.1875 408.585938 606.292969 444.796875 C 606.742188 447.445312 608.566406 449.640625 611.078125 450.578125 C 613.597656 451.515625 616.417969 451.035156 618.480469 449.320312 C 624.015625 444.730469 630.59375 442.300781 637.5 442.300781 C 639.023438 442.300781 640.550781 442.457031 642.34375 442.808594 C 656.917969 445.195312 667.5 457.589844 667.5 472.300781 C 667.5 474.363281 667.238281 476.542969 666.691406 478.960938 C 666.140625 481.402344 666.847656 483.960938 668.566406 485.777344 C 670.28125 487.585938 672.773438 488.433594 675.277344 488.003906 C 678.074219 487.523438 680.378906 487.300781 682.5 487.300781 C 707.316406 487.300781 727.5 507.480469 727.5 532.300781 C 727.5 554.558594 710.871094 573.683594 688.835938 576.796875 C 688.253906 576.878906 687.691406 577.050781 687.148438 577.300781 L 442.5 577.300781 C 417.683594 577.300781 397.5 557.117188 397.5 532.300781 C 397.5 507.480469 417.683594 487.300781 442.5 487.300781 Z M 442.5 487.300781 "/>
</g>
</svg>
